<svg version="1.1" xmlns="http://www.w3.org/2000/svg" xmlns:xlink="http://www.w3.org/1999/xlink" width="1081" height="748"><defs/><g><g transform="translate(-102,-30) scale(1,1)"><path fill="none" stroke="#000000" d="M 112 120 L 806 120 L 806 714 L 112 714 L 112 120" stroke-miterlimit="10"/></g><g transform="translate(-102,-30) scale(1,1)"><path fill="#ffffff" stroke="none" d="M 112 120 L 112 142 L 285 142 L 296 131 L 296 120 L 112 120"/></g><g transform="translate(-102,-30) scale(1,1)"><path fill="none" stroke="#000000" d="M 112 120 L 112 142 L 285 142 L 296 131 L 296 120 L 112 120 L 112 120" stroke-miterlimit="10"/></g><g transform="translate(-102,-30) scale(1,1)"><g><path fill="none" stroke="none"/><text fill="#000000" stroke="none" font-family="Arial" font-size="13px" font-style="normal" font-weight="normal" text-decoration="none" x="183" y="137.5">IssuePermission</text></g></g><g transform="translate(-102,-30) scale(1,1)"><g><path fill="none" stroke="none"/><text fill="#000000" stroke="none" font-family="Arial" font-size="13px" font-style="normal" font-weight="bold" text-decoration="none" x="117" y="137.5">interaction</text></g></g><g transform="translate(-102,-30) scale(1,1)"><rect fill="#C0C0C0" stroke="none" x="655" y="47" width="72" height="39" opacity="0.2"/></g><g transform="translate(-102,-30) scale(1,1)"><rect fill="#ffffff" stroke="none" x="648" y="40" width="72" height="39"/></g><g transform="translate(-102,-30) scale(1,1)"><path fill="none" stroke="#000000" d="M 648 40 L 720 40 L 720 79 L 648 79 L 648 40 Z Z" stroke-miterlimit="10"/></g><g transform="translate(-102,-30) scale(1,1)"><g><path fill="none" stroke="none"/><text fill="#000000" stroke="none" font-family="Arial" font-size="13px" font-style="normal" font-weight="bold" text-decoration="none" x="661.5" y="59.5">System</text></g></g><g transform="translate(-102,-30) scale(1,1)"><path fill="none" stroke="#000000" d="M 685.5 80 L 685.5 768" stroke-miterlimit="10" stroke-dasharray="3"/></g><g transform="translate(-102,-30) scale(1,1)"><rect fill="#C0C0C0" stroke="none" x="407" y="47" width="72" height="39" opacity="0.2"/></g><g transform="translate(-102,-30) scale(1,1)"><rect fill="#ffffff" stroke="none" x="400" y="40" width="72" height="39"/></g><g transform="translate(-102,-30) scale(1,1)"><path fill="none" stroke="#000000" d="M 400 40 L 472 40 L 472 79 L 400 79 L 400 40 Z Z" stroke-miterlimit="10"/></g><g transform="translate(-102,-30) scale(1,1)"><g><path fill="none" stroke="none"/><text fill="#000000" stroke="none" font-family="Arial" font-size="13px" font-style="normal" font-weight="bold" text-decoration="none" x="422.5" y="59.5">User</text></g></g><g transform="translate(-102,-30) scale(1,1)"><path fill="none" stroke="#000000" d="M 437.5 80 L 437.5 768" stroke-miterlimit="10" stroke-dasharray="3"/></g><g transform="translate(-102,-30) scale(1,1)"><path fill="none" stroke="#000000" d="M 368 296 L 759 296 L 759 560 L 368 560 L 368 296" stroke-miterlimit="10"/></g><g transform="translate(-102,-30) scale(1,1)"><path fill="#ffffff" stroke="none" d="M 368 296 L 368 318 L 431 318 L 442 307 L 442 296 L 368 296"/></g><g transform="translate(-102,-30) scale(1,1)"><path fill="none" stroke="#000000" d="M 368 296 L 368 318 L 431 318 L 442 307 L 442 296 L 368 296 L 368 296" stroke-miterlimit="10"/></g><g transform="translate(-102,-30) scale(1,1)"><g><path fill="none" stroke="none"/><text fill="#000000" stroke="none" font-family="Arial" font-size="13px" font-style="normal" font-weight="normal" text-decoration="none" x="403" y="313.5">new</text></g></g><g transform="translate(-102,-30) scale(1,1)"><g><path fill="none" stroke="none"/><text fill="#000000" stroke="none" font-family="Arial" font-size="13px" font-style="normal" font-weight="bold" text-decoration="none" x="373" y="313.5">loop</text></g></g><g transform="translate(-102,-30) scale(1,1)"><g><path fill="none" stroke="none"/><text fill="#000000" stroke="none" font-family="Arial" font-size="20px" font-style="normal" font-weight="normal" text-decoration="none" x="845" y="153">Contract:</text></g></g><g transform="translate(-102,-30) scale(1,1)"><g><path fill="none" stroke="none"/></g></g><g transform="translate(-102,-30) scale(1,1)"><g><path fill="none" stroke="none"/><text fill="#000000" stroke="none" font-family="Arial" font-size="20px" font-style="normal" font-weight="normal" text-decoration="none" x="845" y="177">operation:issuePermission</text></g></g><g transform="translate(-102,-30) scale(1,1)"><g><path fill="none" stroke="none"/></g></g><g transform="translate(-102,-30) scale(1,1)"><g><path fill="none" stroke="none"/><text fill="#000000" stroke="none" font-family="Arial" font-size="20px" font-style="normal" font-weight="normal" text-decoration="none" x="845" y="201">(license, merchant, validityDuration,</text><text fill="#000000" stroke="none" font-family="Arial" font-size="20px" font-style="normal" font-weight="normal" text-decoration="none" x="845" y="221">sourceCountry, transportType,</text><text fill="#000000" stroke="none" font-family="Arial" font-size="20px" font-style="normal" font-weight="normal" text-decoration="none" x="845" y="241">goods)</text></g></g><g transform="translate(-102,-30) scale(1,1)"><g><path fill="none" stroke="none"/><text fill="#000000" stroke="none" font-family="Arial" font-size="20px" font-style="normal" font-weight="normal" text-decoration="none" x="845" y="263">Cross Reference: usecase صدور</text><text fill="#000000" stroke="none" font-family="Arial" font-size="20px" font-style="normal" font-weight="normal" text-decoration="none" x="845" y="283">مجوز</text></g></g><g transform="translate(-102,-30) scale(1,1)"><g><path fill="none" stroke="none"/></g></g><g transform="translate(-102,-30) scale(1,1)"><g><path fill="none" stroke="none"/></g></g><g transform="translate(-102,-30) scale(1,1)"><g><path fill="none" stroke="none"/><text fill="#000000" stroke="none" font-family="Arial" font-size="20px" font-style="normal" font-weight="normal" text-decoration="none" x="845" y="289">Pre-conditons:</text></g></g><g transform="translate(-102,-30) scale(1,1)"><g><path fill="none" stroke="none"/><text fill="#000000" stroke="none" font-family="Arial" font-size="20px" font-style="normal" font-weight="normal" text-decoration="none" x="845" y="311">-نماینده وزارت خانه لاگین کرده باشد</text></g></g><g transform="translate(-102,-30) scale(1,1)"><g><path fill="none" stroke="none"/><text fill="#000000" stroke="none" font-family="Arial" font-size="20px" font-style="normal" font-weight="normal" text-decoration="none" x="845" y="333">-نماینده اجازه‌ی صدور این نوع مجوز را</text><text fill="#000000" stroke="none" font-family="Arial" font-size="20px" font-style="normal" font-weight="normal" text-decoration="none" x="845" y="353">داشته باشد</text></g></g><g transform="translate(-102,-30) scale(1,1)"><g><path fill="none" stroke="none"/></g></g><g transform="translate(-102,-30) scale(1,1)"><g><path fill="none" stroke="none"/><text fill="#000000" stroke="none" font-family="Arial" font-size="20px" font-style="normal" font-weight="normal" text-decoration="none" x="845" y="377">Post-conditions:</text></g></g><g transform="translate(-102,-30) scale(1,1)"><g><path fill="none" stroke="none"/><text fill="#000000" stroke="none" font-family="Arial" font-size="20px" font-style="normal" font-weight="normal" text-decoration="none" x="845" y="399">۱-اضافه شدن مجوز به سیستم</text></g></g><g transform="translate(-102,-30) scale(1,1)"><g><path fill="none" stroke="none"/><text fill="#000000" stroke="none" font-family="Arial" font-size="20px" font-style="normal" font-weight="normal" text-decoration="none" x="845" y="421">۲-ایجاد ارتباط با اظهارنامه، تاجر، کالا </text></g></g><g transform="translate(-102,-30) scale(1,1)"><g><path fill="none" stroke="none"/><text fill="#000000" stroke="none" font-family="Arial" font-size="20px" font-style="normal" font-weight="normal" text-decoration="none" x="845" y="443">۳- اطلاعات مربوط به مجوز کامل شده باشد</text></g></g><g transform="translate(-102,-30) scale(1,1)"><g><path fill="none" stroke="none"/></g></g><g transform="translate(-102,-30) scale(1,1)"><path fill="none" stroke="#000000" d="M 437 160 L 685 160" stroke-miterlimit="10"/></g><g transform="translate(-102,-30) scale(1,1)"><path fill="#000000" stroke="none" d="M 674.8373251423759 164.209517756016 L 685 160 L 674.8373251423758 155.790482243984"/></g><g transform="translate(-102,-30) scale(1,1)"><path fill="none" stroke="#000000" d="M 674.8373251423759 164.209517756016 L 685 160 L 674.8373251423758 155.790482243984 L 674.8373251423759 164.209517756016" stroke-miterlimit="10"/></g><g transform="translate(-102,-30) scale(1,1)"><g><path fill="none" stroke="none"/><text fill="#000000" stroke="none" font-family="Arial" font-size="13px" font-style="normal" font-weight="normal" text-decoration="none" x="480" y="157">signIn(username, password)</text></g></g><g transform="translate(-102,-30) scale(1,1)"><path fill="none" stroke="#000000" d="M 685 180 L 437 180" stroke-miterlimit="10" stroke-dasharray="3"/></g><g transform="translate(-102,-30) scale(1,1)"><path fill="none" stroke="#000000" d="M 447.16267485762415 175.790482243984 L 437 180 L 447.16267485762415 184.209517756016" stroke-miterlimit="10"/></g><g transform="translate(-102,-30) scale(1,1)"><g><path fill="none" stroke="none"/><text fill="#000000" stroke="none" font-family="Arial" font-size="13px" font-style="normal" font-weight="normal" text-decoration="none" x="521" y="197">HomeWindow</text></g></g><g transform="translate(-102,-30) scale(1,1)"><path fill="none" stroke="#000000" d="M 437 336 L 685 336" stroke-miterlimit="10"/></g><g transform="translate(-102,-30) scale(1,1)"><path fill="#000000" stroke="none" d="M 674.8373251423759 340.209517756016 L 685 336 L 674.8373251423758 331.790482243984"/></g><g transform="translate(-102,-30) scale(1,1)"><path fill="none" stroke="#000000" d="M 674.8373251423759 340.209517756016 L 685 336 L 674.8373251423758 331.790482243984 L 674.8373251423759 340.209517756016" stroke-miterlimit="10"/></g><g transform="translate(-102,-30) scale(1,1)"><g><path fill="none" stroke="none"/><text fill="#000000" stroke="none" font-family="Arial" font-size="13px" font-style="normal" font-weight="normal" text-decoration="none" x="494" y="333">CreateNewPersmission</text></g></g><g transform="translate(-102,-30) scale(1,1)"><path fill="none" stroke="#000000" d="M 685 356 L 437 356" stroke-miterlimit="10" stroke-dasharray="3"/></g><g transform="translate(-102,-30) scale(1,1)"><path fill="none" stroke="#000000" d="M 447.16267485762415 351.790482243984 L 437 356 L 447.16267485762415 360.209517756016" stroke-miterlimit="10"/></g><g transform="translate(-102,-30) scale(1,1)"><g><path fill="none" stroke="none"/><text fill="#000000" stroke="none" font-family="Arial" font-size="13px" font-style="normal" font-weight="normal" text-decoration="none" x="513" y="373">PermissionForm</text></g></g><g transform="translate(-102,-30) scale(1,1)"><path fill="none" stroke="#000000" d="M 437 416 L 685 416" stroke-miterlimit="10"/></g><g transform="translate(-102,-30) scale(1,1)"><path fill="#000000" stroke="none" d="M 674.8373251423759 420.209517756016 L 685 416 L 674.8373251423758 411.790482243984"/></g><g transform="translate(-102,-30) scale(1,1)"><path fill="none" stroke="#000000" d="M 674.8373251423759 420.209517756016 L 685 416 L 674.8373251423758 411.790482243984 L 674.8373251423759 420.209517756016" stroke-miterlimit="10"/></g><g transform="translate(-102,-30) scale(1,1)"><g><path fill="none" stroke="none"/><text fill="#000000" stroke="none" font-family="Arial" font-size="13px" font-style="normal" font-weight="normal" text-decoration="none" x="474" y="413">SubmitForm(PermissionForm)</text></g></g><g transform="translate(-102,-30) scale(1,1)"><path fill="none" stroke="#000000" d="M 685 432 L 715 432 L 715 452 L 685 452" stroke-miterlimit="10"/></g><g transform="translate(-102,-30) scale(1,1)"><path fill="#000000" stroke="none" d="M 695.1626748576241 447.790482243984 L 685 452 L 695.1626748576241 456.209517756016"/></g><g transform="translate(-102,-30) scale(1,1)"><path fill="none" stroke="#000000" d="M 695.1626748576241 447.790482243984 L 685 452 L 695.1626748576241 456.209517756016 L 695.1626748576241 447.790482243984" stroke-miterlimit="10"/></g><g transform="translate(-102,-30) scale(1,1)"><g><path fill="none" stroke="none"/><text fill="#000000" stroke="none" font-family="Arial" font-size="13px" font-style="normal" font-weight="normal" text-decoration="none" x="624" y="447">setDate()</text></g></g><g transform="translate(-102,-30) scale(1,1)"><path fill="none" stroke="#000000" d="M 685 480 L 715 480 L 715 500 L 685 500" stroke-miterlimit="10"/></g><g transform="translate(-102,-30) scale(1,1)"><path fill="#000000" stroke="none" d="M 695.1626748576241 495.790482243984 L 685 500 L 695.1626748576241 504.209517756016"/></g><g transform="translate(-102,-30) scale(1,1)"><path fill="none" stroke="#000000" d="M 695.1626748576241 495.790482243984 L 685 500 L 695.1626748576241 504.209517756016 L 695.1626748576241 495.790482243984" stroke-miterlimit="10"/></g><g transform="translate(-102,-30) scale(1,1)"><g><path fill="none" stroke="none"/><text fill="#000000" stroke="none" font-family="Arial" font-size="13px" font-style="normal" font-weight="normal" text-decoration="none" x="608" y="495">generateID()</text></g></g><g transform="translate(-102,-30) scale(1,1)"><path fill="none" stroke="#000000" d="M 685 520 L 437 520" stroke-miterlimit="10" stroke-dasharray="3"/></g><g transform="translate(-102,-30) scale(1,1)"><path fill="none" stroke="#000000" d="M 447.16267485762415 515.790482243984 L 437 520 L 447.16267485762415 524.209517756016" stroke-miterlimit="10"/></g><g transform="translate(-102,-30) scale(1,1)"><g><path fill="none" stroke="none"/><text fill="#000000" stroke="none" font-family="Arial" font-size="13px" font-style="normal" font-weight="normal" text-decoration="none" x="522" y="537">permissionID</text></g></g><g transform="translate(-102,-30) scale(1,1)"><path fill="none" stroke="#000000" d="M 437 621 L 685 621" stroke-miterlimit="10"/></g><g transform="translate(-102,-30) scale(1,1)"><path fill="#000000" stroke="none" d="M 674.8373251423759 625.209517756016 L 685 621 L 674.8373251423758 616.790482243984"/></g><g transform="translate(-102,-30) scale(1,1)"><path fill="none" stroke="#000000" d="M 674.8373251423759 625.209517756016 L 685 621 L 674.8373251423758 616.790482243984 L 674.8373251423759 625.209517756016" stroke-miterlimit="10"/></g><g transform="translate(-102,-30) scale(1,1)"><g><path fill="none" stroke="none"/><text fill="#000000" stroke="none" font-family="Arial" font-size="13px" font-style="normal" font-weight="normal" text-decoration="none" x="535" y="618">signOut()</text></g></g><g transform="translate(-102,-30) scale(1,1)"><path fill="none" stroke="#000000" d="M 685 641 L 437 641" stroke-miterlimit="10" stroke-dasharray="3"/></g><g transform="translate(-102,-30) scale(1,1)"><path fill="none" stroke="#000000" d="M 447.16267485762415 636.790482243984 L 437 641 L 447.16267485762415 645.209517756016" stroke-miterlimit="10"/></g><g transform="translate(-102,-30) scale(1,1)"><g><path fill="none" stroke="none"/><text fill="#000000" stroke="none" font-family="Arial" font-size="13px" font-style="normal" font-weight="normal" text-decoration="none" x="524" y="658">loginWindow</text></g></g></g></svg>