<svg version="1.1" xmlns="http://www.w3.org/2000/svg" xmlns:xlink="http://www.w3.org/1999/xlink" width="1023" height="628"><defs/><g><g transform="translate(-166,-142) scale(1,1)"><rect fill="#C0C0C0" stroke="none" x="719" y="383" width="184" height="48" opacity="0.2"/></g><g transform="translate(-166,-142) scale(1,1)"><rect fill="#ffffff" stroke="none" x="712" y="376" width="184" height="48"/></g><g transform="translate(-166,-142) scale(1,1)"><path fill="none" stroke="#000000" d="M 712 376 L 896 376 L 896 424 L 712 424 L 712 376 Z Z" stroke-miterlimit="10"/></g><g transform="translate(-166,-142) scale(1,1)"><path fill="none" stroke="#000000" d="M 712 400 L 896 400" stroke-miterlimit="10"/></g><g transform="translate(-166,-142) scale(1,1)"><g><path fill="none" stroke="none"/><text fill="#000000" stroke="none" font-family="Arial" font-size="12px" font-style="normal" font-weight="bold" text-decoration="none" x="751.5" y="394.5">Organization Agent</text></g></g><g transform="translate(-166,-142) scale(1,1)"><g><path fill="none" stroke="none"/><text fill="#000000" stroke="none" font-family="Arial" font-size="12px" font-style="normal" font-weight="normal" text-decoration="none" x="717" y="416.5">organization name</text></g></g><g transform="translate(-166,-142) scale(1,1)"><rect fill="#C0C0C0" stroke="none" x="271" y="383" width="184" height="40" opacity="0.2"/></g><g transform="translate(-166,-142) scale(1,1)"><rect fill="#ffffff" stroke="none" x="264" y="376" width="184" height="40"/></g><g transform="translate(-166,-142) scale(1,1)"><path fill="none" stroke="#000000" d="M 264 376 L 448 376 L 448 416 L 264 416 L 264 376 Z Z" stroke-miterlimit="10"/></g><g transform="translate(-166,-142) scale(1,1)"><path fill="none" stroke="#000000" d="M 264 400 L 448 400" stroke-miterlimit="10"/></g><g transform="translate(-166,-142) scale(1,1)"><g><path fill="none" stroke="none"/><text fill="#000000" stroke="none" font-family="Arial" font-size="12px" font-style="normal" font-weight="bold" text-decoration="none" x="328.5" y="394.5">Employee</text></g></g><g transform="translate(-166,-142) scale(1,1)"><rect fill="#C0C0C0" stroke="none" x="935" y="383" width="184" height="33" opacity="0.2"/></g><g transform="translate(-166,-142) scale(1,1)"><rect fill="#ffffff" stroke="none" x="928" y="376" width="184" height="33"/></g><g transform="translate(-166,-142) scale(1,1)"><path fill="none" stroke="#000000" d="M 928 376 L 1112 376 L 1112 409 L 928 409 L 928 376 Z Z" stroke-miterlimit="10"/></g><g transform="translate(-166,-142) scale(1,1)"><path fill="none" stroke="#000000" d="M 928 400 L 1112 400" stroke-miterlimit="10"/></g><g transform="translate(-166,-142) scale(1,1)"><g><path fill="none" stroke="none"/><text fill="#000000" stroke="none" font-family="Arial" font-size="12px" font-style="normal" font-weight="bold" text-decoration="none" x="973" y="394.5">Senior Employee</text></g></g><g transform="translate(-166,-142) scale(1,1)"><rect fill="#C0C0C0" stroke="none" x="487" y="383" width="184" height="33" opacity="0.2"/></g><g transform="translate(-166,-142) scale(1,1)"><rect fill="#ffffff" stroke="none" x="480" y="376" width="184" height="33"/></g><g transform="translate(-166,-142) scale(1,1)"><path fill="none" stroke="#000000" d="M 480 376 L 664 376 L 664 409 L 480 409 L 480 376 Z Z" stroke-miterlimit="10"/></g><g transform="translate(-166,-142) scale(1,1)"><path fill="none" stroke="#000000" d="M 480 400 L 664 400" stroke-miterlimit="10"/></g><g transform="translate(-166,-142) scale(1,1)"><g><path fill="none" stroke="none"/><text fill="#000000" stroke="none" font-family="Arial" font-size="12px" font-style="normal" font-weight="bold" text-decoration="none" x="537.5" y="394.5">Adminstrator</text></g></g><g transform="translate(-166,-142) scale(1,1)"><rect fill="#C0C0C0" stroke="none" x="959" y="512" width="227" height="255" opacity="0.2"/></g><g transform="translate(-166,-142) scale(1,1)"><rect fill="#ffffff" stroke="none" x="952" y="505" width="227" height="255"/></g><g transform="translate(-166,-142) scale(1,1)"><path fill="none" stroke="#000000" d="M 952 505 L 1179 505 L 1179 760 L 952 760 L 952 505 Z Z" stroke-miterlimit="10"/></g><g transform="translate(-166,-142) scale(1,1)"><path fill="none" stroke="#000000" d="M 952 529 L 1179 529" stroke-miterlimit="10"/></g><g transform="translate(-166,-142) scale(1,1)"><g><path fill="none" stroke="none"/><text fill="#000000" stroke="none" font-family="Arial" font-size="12px" font-style="normal" font-weight="bold" text-decoration="none" x="1052.5" y="523.5">Rule</text></g></g><g transform="translate(-166,-142) scale(1,1)"><g><path fill="none" stroke="none"/><text fill="#000000" stroke="none" font-family="Arial" font-size="12px" font-style="normal" font-weight="normal" text-decoration="none" x="957" y="545.5">creator national id</text></g></g><g transform="translate(-166,-142) scale(1,1)"><g><path fill="none" stroke="none"/><text fill="#000000" stroke="none" font-family="Arial" font-size="12px" font-style="normal" font-weight="normal" text-decoration="none" x="957" y="559.5">creation date: Date</text></g></g><g transform="translate(-166,-142) scale(1,1)"><g><path fill="none" stroke="none"/><text fill="#000000" stroke="none" font-family="Arial" font-size="12px" font-style="normal" font-weight="normal" text-decoration="none" x="957" y="573.5">rule id</text></g></g><g transform="translate(-166,-142) scale(1,1)"><g><path fill="none" stroke="none"/><text fill="#000000" stroke="none" font-family="Arial" font-size="12px" font-style="normal" font-weight="normal" text-decoration="none" x="957" y="587.5">enforcement start date: Date</text></g></g><g transform="translate(-166,-142) scale(1,1)"><g><path fill="none" stroke="none"/><text fill="#000000" stroke="none" font-family="Arial" font-size="12px" font-style="normal" font-weight="normal" text-decoration="none" x="957" y="601.5">enforcement end date: Date</text></g></g><g transform="translate(-166,-142) scale(1,1)"><g><path fill="none" stroke="none"/><text fill="#000000" stroke="none" font-family="Arial" font-size="12px" font-style="normal" font-weight="normal" text-decoration="none" x="957" y="615.5">source country[*]</text></g></g><g transform="translate(-166,-142) scale(1,1)"><g><path fill="none" stroke="none"/><text fill="#000000" stroke="none" font-family="Arial" font-size="12px" font-style="normal" font-weight="normal" text-decoration="none" x="957" y="629.5">min good weight</text></g></g><g transform="translate(-166,-142) scale(1,1)"><g><path fill="none" stroke="none"/><text fill="#000000" stroke="none" font-family="Arial" font-size="12px" font-style="normal" font-weight="normal" text-decoration="none" x="957" y="643.5">max good weight</text></g></g><g transform="translate(-166,-142) scale(1,1)"><g><path fill="none" stroke="none"/><text fill="#000000" stroke="none" font-family="Arial" font-size="12px" font-style="normal" font-weight="normal" text-decoration="none" x="957" y="657.5">min good count</text></g></g><g transform="translate(-166,-142) scale(1,1)"><g><path fill="none" stroke="none"/><text fill="#000000" stroke="none" font-family="Arial" font-size="12px" font-style="normal" font-weight="normal" text-decoration="none" x="957" y="671.5">max good count</text></g></g><g transform="translate(-166,-142) scale(1,1)"><g><path fill="none" stroke="none"/><text fill="#000000" stroke="none" font-family="Arial" font-size="12px" font-style="normal" font-weight="normal" text-decoration="none" x="957" y="685.5">merchant national id[*]</text></g></g><g transform="translate(-166,-142) scale(1,1)"><g><path fill="none" stroke="none"/><text fill="#000000" stroke="none" font-family="Arial" font-size="12px" font-style="normal" font-weight="normal" text-decoration="none" x="957" y="699.5">transport type: Map&lt;transport, Boolean&gt;</text></g></g><g transform="translate(-166,-142) scale(1,1)"><g><path fill="none" stroke="none"/><text fill="#000000" stroke="none" font-family="Arial" font-size="12px" font-style="normal" font-weight="normal" text-decoration="none" x="957" y="713.5">good name[*]</text></g></g><g transform="translate(-166,-142) scale(1,1)"><g><path fill="none" stroke="none"/><text fill="#000000" stroke="none" font-family="Arial" font-size="12px" font-style="normal" font-weight="normal" text-decoration="none" x="957" y="727.5">good producer[*]</text></g></g><g transform="translate(-166,-142) scale(1,1)"><g><path fill="none" stroke="none"/><text fill="#000000" stroke="none" font-family="Arial" font-size="12px" font-style="normal" font-weight="normal" text-decoration="none" x="957" y="741.5">min total value</text></g></g><g transform="translate(-166,-142) scale(1,1)"><g><path fill="none" stroke="none"/><text fill="#000000" stroke="none" font-family="Arial" font-size="12px" font-style="normal" font-weight="normal" text-decoration="none" x="957" y="755.5">max total value</text></g></g><g transform="translate(-166,-142) scale(1,1)"><rect fill="#C0C0C0" stroke="none" x="191" y="663" width="188.42919921875" height="104" opacity="0.2"/></g><g transform="translate(-166,-142) scale(1,1)"><rect fill="#ffffff" stroke="none" x="184" y="656" width="188.42919921875" height="104"/></g><g transform="translate(-166,-142) scale(1,1)"><path fill="none" stroke="#000000" d="M 184 656 L 372.42919921875 656 L 372.42919921875 760 L 184 760 L 184 656 Z Z" stroke-miterlimit="10"/></g><g transform="translate(-166,-142) scale(1,1)"><path fill="none" stroke="#000000" d="M 184 680 L 372.42919921875 680" stroke-miterlimit="10"/></g><g transform="translate(-166,-142) scale(1,1)"><g><path fill="none" stroke="none"/><text fill="#000000" stroke="none" font-family="Arial" font-size="12px" font-style="normal" font-weight="bold" text-decoration="none" x="263.214599609375" y="674.5">Good</text></g></g><g transform="translate(-166,-142) scale(1,1)"><g><path fill="none" stroke="none"/><text fill="#000000" stroke="none" font-family="Arial" font-size="12px" font-style="normal" font-weight="normal" text-decoration="none" x="189" y="696.5">name</text></g></g><g transform="translate(-166,-142) scale(1,1)"><g><path fill="none" stroke="none"/><text fill="#000000" stroke="none" font-family="Arial" font-size="12px" font-style="normal" font-weight="normal" text-decoration="none" x="189" y="710.5">weight</text></g></g><g transform="translate(-166,-142) scale(1,1)"><g><path fill="none" stroke="none"/><text fill="#000000" stroke="none" font-family="Arial" font-size="12px" font-style="normal" font-weight="normal" text-decoration="none" x="189" y="724.5">count</text></g></g><g transform="translate(-166,-142) scale(1,1)"><g><path fill="none" stroke="none"/><text fill="#000000" stroke="none" font-family="Arial" font-size="12px" font-style="normal" font-weight="normal" text-decoration="none" x="189" y="738.5">unit price</text></g></g><g transform="translate(-166,-142) scale(1,1)"><g><path fill="none" stroke="none"/><text fill="#000000" stroke="none" font-family="Arial" font-size="12px" font-style="normal" font-weight="normal" text-decoration="none" x="189" y="752.5">producer</text></g></g><g transform="translate(-166,-142) scale(1,1)"><rect fill="#C0C0C0" stroke="none" x="183" y="455" width="196.23046875" height="102" opacity="0.2"/></g><g transform="translate(-166,-142) scale(1,1)"><rect fill="#ffffff" stroke="none" x="176" y="448" width="196.23046875" height="102"/></g><g transform="translate(-166,-142) scale(1,1)"><path fill="none" stroke="#000000" d="M 176 448 L 372.23046875 448 L 372.23046875 550 L 176 550 L 176 448 Z Z" stroke-miterlimit="10"/></g><g transform="translate(-166,-142) scale(1,1)"><path fill="none" stroke="#000000" d="M 176 472 L 372.23046875 472" stroke-miterlimit="10"/></g><g transform="translate(-166,-142) scale(1,1)"><g><path fill="none" stroke="none"/><text fill="#000000" stroke="none" font-family="Arial" font-size="12px" font-style="normal" font-weight="bold" text-decoration="none" x="242.615234375" y="466.5">Declaration</text></g></g><g transform="translate(-166,-142) scale(1,1)"><g><path fill="none" stroke="none"/><text fill="#000000" stroke="none" font-family="Arial" font-size="12px" font-style="normal" font-weight="normal" text-decoration="none" x="181" y="488.5">declare date</text></g></g><g transform="translate(-166,-142) scale(1,1)"><g><path fill="none" stroke="none"/><text fill="#000000" stroke="none" font-family="Arial" font-size="12px" font-style="normal" font-weight="normal" text-decoration="none" x="181" y="502.5">id</text></g></g><g transform="translate(-166,-142) scale(1,1)"><g><path fill="none" stroke="none"/><text fill="#000000" stroke="none" font-family="Arial" font-size="12px" font-style="normal" font-weight="normal" text-decoration="none" x="181" y="516.5">current status: Status</text></g></g><g transform="translate(-166,-142) scale(1,1)"><g><path fill="none" stroke="none"/><text fill="#000000" stroke="none" font-family="Arial" font-size="12px" font-style="normal" font-weight="normal" text-decoration="none" x="181" y="530.5">source country</text></g></g><g transform="translate(-166,-142) scale(1,1)"><g><path fill="none" stroke="none"/><text fill="#000000" stroke="none" font-family="Arial" font-size="12px" font-style="normal" font-weight="normal" text-decoration="none" x="181" y="544.5">transport type: transport</text></g></g><g transform="translate(-166,-142) scale(1,1)"><rect fill="#C0C0C0" stroke="none" x="583" y="455" width="137" height="143" opacity="0.2"/></g><g transform="translate(-166,-142) scale(1,1)"><rect fill="#ffffff" stroke="none" x="576" y="448" width="137" height="143"/></g><g transform="translate(-166,-142) scale(1,1)"><path fill="none" stroke="#000000" d="M 576 448 L 713 448 L 713 591 L 576 591 L 576 448 Z Z" stroke-miterlimit="10"/></g><g transform="translate(-166,-142) scale(1,1)"><path fill="none" stroke="#000000" d="M 576 472 L 713 472" stroke-miterlimit="10"/></g><g transform="translate(-166,-142) scale(1,1)"><g><path fill="none" stroke="none"/><text fill="#000000" stroke="none" font-family="Arial" font-size="12px" font-style="normal" font-weight="bold" text-decoration="none" x="614" y="466.5">Permission</text></g></g><g transform="translate(-166,-142) scale(1,1)"><g><path fill="none" stroke="none"/><text fill="#000000" stroke="none" font-family="Arial" font-size="12px" font-style="normal" font-weight="normal" text-decoration="none" x="581" y="488.5">permit date</text></g></g><g transform="translate(-166,-142) scale(1,1)"><g><path fill="none" stroke="none"/><text fill="#000000" stroke="none" font-family="Arial" font-size="12px" font-style="normal" font-weight="normal" text-decoration="none" x="581" y="502.5">id</text></g></g><g transform="translate(-166,-142) scale(1,1)"><g><path fill="none" stroke="none"/><text fill="#000000" stroke="none" font-family="Arial" font-size="12px" font-style="normal" font-weight="normal" text-decoration="none" x="581" y="516.5">total value</text></g></g><g transform="translate(-166,-142) scale(1,1)"><g><path fill="none" stroke="none"/><text fill="#000000" stroke="none" font-family="Arial" font-size="12px" font-style="normal" font-weight="normal" text-decoration="none" x="581" y="530.5">source country</text></g></g><g transform="translate(-166,-142) scale(1,1)"><g><path fill="none" stroke="none"/><text fill="#000000" stroke="none" font-family="Arial" font-size="12px" font-style="normal" font-weight="normal" text-decoration="none" x="581" y="544.5">transport type: transport</text></g></g><g transform="translate(-166,-142) scale(1,1)"><g><path fill="none" stroke="none"/><text fill="#000000" stroke="none" font-family="Arial" font-size="12px" font-style="normal" font-weight="normal" text-decoration="none" x="581" y="558.5">good name</text></g></g><g transform="translate(-166,-142) scale(1,1)"><g><path fill="none" stroke="none"/><text fill="#000000" stroke="none" font-family="Arial" font-size="12px" font-style="normal" font-weight="normal" text-decoration="none" x="581" y="572.5">good producer</text></g></g><g transform="translate(-166,-142) scale(1,1)"><g><path fill="none" stroke="none"/><text fill="#000000" stroke="none" font-family="Arial" font-size="12px" font-style="normal" font-weight="normal" text-decoration="none" x="581" y="586.5">good count</text></g></g><g transform="translate(-166,-142) scale(1,1)"><rect fill="#C0C0C0" stroke="none" x="479" y="680" width="112" height="87" opacity="0.2"/></g><g transform="translate(-166,-142) scale(1,1)"><rect fill="#ffffff" stroke="none" x="472" y="673" width="112" height="87"/></g><g transform="translate(-166,-142) scale(1,1)"><path fill="none" stroke="#000000" d="M 472 673 L 584 673 L 584 760 L 472 760 L 472 673 Z Z" stroke-miterlimit="10"/></g><g transform="translate(-166,-142) scale(1,1)"><path fill="none" stroke="#000000" d="M 472 697 L 584 697" stroke-miterlimit="10"/></g><g transform="translate(-166,-142) scale(1,1)"><g><path fill="none" stroke="none"/><text fill="#000000" stroke="none" font-family="Arial" font-size="12px" font-style="normal" font-weight="bold" text-decoration="none" x="502.5" y="691.5">Merchant</text></g></g><g transform="translate(-166,-142) scale(1,1)"><g><path fill="none" stroke="none"/><text fill="#000000" stroke="none" font-family="Arial" font-size="12px" font-style="normal" font-weight="normal" text-decoration="none" x="477" y="713.5">national id</text></g></g><g transform="translate(-166,-142) scale(1,1)"><g><path fill="none" stroke="none"/><text fill="#000000" stroke="none" font-family="Arial" font-size="12px" font-style="normal" font-weight="normal" text-decoration="none" x="477" y="727.5">first name</text></g></g><g transform="translate(-166,-142) scale(1,1)"><g><path fill="none" stroke="none"/><text fill="#000000" stroke="none" font-family="Arial" font-size="12px" font-style="normal" font-weight="normal" text-decoration="none" x="477" y="741.5">lastname</text></g></g><g transform="translate(-166,-142) scale(1,1)"><path fill="none" stroke="#950202" d="M 373 504 L 575 515" stroke-miterlimit="10"/></g><g transform="translate(-166,-142) scale(1,1)"><g><path fill="none" stroke="none"/><text fill="#000000" stroke="none" font-family="Arial" font-size="12px" font-style="normal" font-weight="normal" text-decoration="none" x="447" y="530">issued</text></g></g><g transform="translate(-166,-142) scale(1,1)"><g><path fill="none" stroke="none"/><text fill="#000000" stroke="none" font-family="Arial" font-size="12px" font-style="normal" font-weight="normal" text-decoration="none" x="390" y="523">1</text></g></g><g transform="translate(-166,-142) scale(1,1)"><g><path fill="none" stroke="none"/><text fill="#000000" stroke="none" font-family="Arial" font-size="12px" font-style="normal" font-weight="normal" text-decoration="none" x="550" y="532">*</text></g></g><g transform="translate(-166,-142) scale(1,1)"><path fill="none" stroke="#000000" d="M 275 551 L 277 655" stroke-miterlimit="10"/></g><g transform="translate(-166,-142) scale(1,1)"><g><path fill="none" stroke="none"/><text fill="#000000" stroke="none" font-family="Arial" font-size="13px" font-style="normal" font-weight="normal" text-decoration="none" x="280" y="609">has</text></g></g><g transform="translate(-166,-142) scale(1,1)"><g><path fill="none" stroke="none"/><text fill="#000000" stroke="none" font-family="Arial" font-size="12px" font-style="normal" font-weight="normal" text-decoration="none" x="259" y="578">1</text></g></g><g transform="translate(-166,-142) scale(1,1)"><g><path fill="none" stroke="none"/><text fill="#000000" stroke="none" font-family="Arial" font-size="12px" font-style="normal" font-weight="normal" text-decoration="none" x="255" y="639">1..*</text></g></g><g transform="translate(-166,-142) scale(1,1)"><path fill="none" stroke="#000000" d="M 335 551 L 476 672" stroke-miterlimit="10"/></g><g transform="translate(-166,-142) scale(1,1)"><g><path fill="none" stroke="none"/><text fill="#000000" stroke="none" font-family="Arial" font-size="13px" font-style="normal" font-weight="normal" text-decoration="none" x="342" y="629">belongs to</text></g></g><g transform="translate(-166,-142) scale(1,1)"><g><path fill="none" stroke="none"/><text fill="#000000" stroke="none" font-family="Arial" font-size="13px" font-style="normal" font-weight="normal" text-decoration="none" x="340" y="581">1</text></g></g><g transform="translate(-166,-142) scale(1,1)"><g><path fill="none" stroke="none"/><text fill="#000000" stroke="none" font-family="Arial" font-size="13px" font-style="normal" font-weight="normal" text-decoration="none" x="438" y="664">1</text></g></g><g transform="translate(-166,-142) scale(1,1)"><rect fill="#C0C0C0" stroke="none" x="727" y="695" width="164" height="72" opacity="0.2"/></g><g transform="translate(-166,-142) scale(1,1)"><rect fill="#ffffff" stroke="none" x="720" y="688" width="164" height="72"/></g><g transform="translate(-166,-142) scale(1,1)"><path fill="none" stroke="#000000" d="M 720 688 L 884 688 L 884 760 L 720 760 L 720 688 Z Z" stroke-miterlimit="10"/></g><g transform="translate(-166,-142) scale(1,1)"><path fill="none" stroke="#000000" d="M 720 712 L 884 712" stroke-miterlimit="10"/></g><g transform="translate(-166,-142) scale(1,1)"><g><path fill="none" stroke="none"/><text fill="#000000" stroke="none" font-family="Arial" font-size="12px" font-style="normal" font-weight="bold" text-decoration="none" x="780.5" y="706.5">License</text></g></g><g transform="translate(-166,-142) scale(1,1)"><g><path fill="none" stroke="none"/><text fill="#000000" stroke="none" font-family="Arial" font-size="12px" font-style="normal" font-weight="normal" text-decoration="none" x="725" y="728.5">title</text></g></g><g transform="translate(-166,-142) scale(1,1)"><g><path fill="none" stroke="none"/><text fill="#000000" stroke="none" font-family="Arial" font-size="12px" font-style="normal" font-weight="normal" text-decoration="none" x="725" y="742.5">validity duration</text></g></g><g transform="translate(-166,-142) scale(1,1)"><path fill="none" stroke="#000000" d="M 601 592 L 554 672" stroke-miterlimit="10"/></g><g transform="translate(-166,-142) scale(1,1)"><g><path fill="none" stroke="none"/><text fill="#000000" stroke="none" font-family="Arial" font-size="13px" font-style="normal" font-weight="normal" text-decoration="none" x="579" y="638">belongs to</text></g></g><g transform="translate(-166,-142) scale(1,1)"><g><path fill="none" stroke="none"/><text fill="#000000" stroke="none" font-family="Arial" font-size="13px" font-style="normal" font-weight="normal" text-decoration="none" x="576" y="611">1</text></g></g><g transform="translate(-166,-142) scale(1,1)"><g><path fill="none" stroke="none"/><text fill="#000000" stroke="none" font-family="Arial" font-size="13px" font-style="normal" font-weight="normal" text-decoration="none" x="551" y="654">1</text></g></g><g transform="translate(-166,-142) scale(1,1)"><path fill="none" stroke="#000000" d="M 373 484 L 400 480 L 536 480 L 575 494" stroke-miterlimit="10"/></g><g transform="translate(-166,-142) scale(1,1)"><g><path fill="none" stroke="none"/><text fill="#000000" stroke="none" font-family="Arial" font-size="12px" font-style="normal" font-weight="normal" text-decoration="none" x="447" y="473">pending</text></g></g><g transform="translate(-166,-142) scale(1,1)"><g><path fill="none" stroke="none"/><text fill="#000000" stroke="none" font-family="Arial" font-size="13px" font-style="normal" font-weight="normal" text-decoration="none" x="393" y="500">1</text></g></g><g transform="translate(-166,-142) scale(1,1)"><g><path fill="none" stroke="none"/><text fill="#000000" stroke="none" font-family="Arial" font-size="13px" font-style="normal" font-weight="normal" text-decoration="none" x="548" y="505">*</text></g></g><g transform="translate(-166,-142) scale(1,1)"><rect fill="#C0C0C0" stroke="none" x="583" y="159" width="184" height="159" opacity="0.2"/></g><g transform="translate(-166,-142) scale(1,1)"><rect fill="#ffffff" stroke="none" x="576" y="152" width="184" height="159"/></g><g transform="translate(-166,-142) scale(1,1)"><path fill="none" stroke="#000000" d="M 576 152 L 760 152 L 760 311 L 576 311 L 576 152 Z Z" stroke-miterlimit="10"/></g><g transform="translate(-166,-142) scale(1,1)"><path fill="none" stroke="#000000" d="M 576 177 L 760 177" stroke-miterlimit="10"/></g><g transform="translate(-166,-142) scale(1,1)"><g><path fill="none" stroke="none"/><text fill="#000000" stroke="none" font-family="Arial" font-size="13px" font-style="italic" font-weight="bold" text-decoration="none" x="654.5" y="171.5">User</text></g></g><g transform="translate(-166,-142) scale(1,1)"><g><path fill="none" stroke="none"/><text fill="#000000" stroke="none" font-family="Arial" font-size="13px" font-style="normal" font-weight="normal" text-decoration="none" x="581" y="194.5">username</text></g></g><g transform="translate(-166,-142) scale(1,1)"><g><path fill="none" stroke="none"/><text fill="#000000" stroke="none" font-family="Arial" font-size="13px" font-style="normal" font-weight="normal" text-decoration="none" x="581" y="209.5">password</text></g></g><g transform="translate(-166,-142) scale(1,1)"><g><path fill="none" stroke="none"/><text fill="#000000" stroke="none" font-family="Arial" font-size="13px" font-style="normal" font-weight="normal" text-decoration="none" x="581" y="224.5">national id</text></g></g><g transform="translate(-166,-142) scale(1,1)"><g><path fill="none" stroke="none"/><text fill="#000000" stroke="none" font-family="Arial" font-size="13px" font-style="normal" font-weight="normal" text-decoration="none" x="581" y="239.5">first name</text></g></g><g transform="translate(-166,-142) scale(1,1)"><g><path fill="none" stroke="none"/><text fill="#000000" stroke="none" font-family="Arial" font-size="13px" font-style="normal" font-weight="normal" text-decoration="none" x="581" y="254.5">last name</text></g></g><g transform="translate(-166,-142) scale(1,1)"><g><path fill="none" stroke="none"/><text fill="#000000" stroke="none" font-family="Arial" font-size="13px" font-style="normal" font-weight="normal" text-decoration="none" x="581" y="269.5">access list: List&lt;access&gt;</text></g></g><g transform="translate(-166,-142) scale(1,1)"><path fill="none" stroke="#000000" d="M 396 375 L 575 280" stroke-miterlimit="10"/></g><g transform="translate(-166,-142) scale(1,1)"><path fill="#FFFFFF" stroke="none" d="M 560.9932664095217 296.9650055739857 L 575 280 L 553.0996732116665 282.0918141801323"/></g><g transform="translate(-166,-142) scale(1,1)"><path fill="none" stroke="#000000" d="M 560.9932664095217 296.9650055739857 L 575 280 L 553.0996732116665 282.0918141801323 L 560.9932664095217 296.9650055739857" stroke-miterlimit="10"/></g><g transform="translate(-166,-142) scale(1,1)"><path fill="none" stroke="#000000" d="M 582 375 L 620 312" stroke-miterlimit="10"/></g><g transform="translate(-166,-142) scale(1,1)"><path fill="#FFFFFF" stroke="none" d="M 616.7112426247312 333.75279464635787 L 620 312 L 602.2929487540721 325.05604596246826"/></g><g transform="translate(-166,-142) scale(1,1)"><path fill="none" stroke="#000000" d="M 616.7112426247312 333.75279464635787 L 620 312 L 602.2929487540721 325.05604596246826 L 616.7112426247312 333.75279464635787" stroke-miterlimit="10"/></g><g transform="translate(-166,-142) scale(1,1)"><path fill="none" stroke="#000000" d="M 784 375 L 733 312" stroke-miterlimit="10"/></g><g transform="translate(-166,-142) scale(1,1)"><path fill="#FFFFFF" stroke="none" d="M 752.3323262059222 322.5005315802494 L 733 312 L 739.2450218698601 333.0950160427758"/></g><g transform="translate(-166,-142) scale(1,1)"><path fill="none" stroke="#000000" d="M 752.3323262059222 322.5005315802494 L 733 312 L 739.2450218698601 333.0950160427758 L 752.3323262059222 322.5005315802494" stroke-miterlimit="10"/></g><g transform="translate(-166,-142) scale(1,1)"><path fill="none" stroke="#000000" d="M 983 375 L 761 274" stroke-miterlimit="10"/></g><g transform="translate(-166,-142) scale(1,1)"><path fill="#FFFFFF" stroke="none" d="M 782.9870842062595 274.75374273253914 L 761 274 L 776.0142397433171 290.0801929382142"/></g><g transform="translate(-166,-142) scale(1,1)"><path fill="none" stroke="#000000" d="M 782.9870842062595 274.75374273253914 L 761 274 L 776.0142397433171 290.0801929382142 L 782.9870842062595 274.75374273253914" stroke-miterlimit="10"/></g><g transform="translate(-166,-142) scale(1,1)"><path fill="none" stroke="#000000" d="M 951 672 L 885 695" stroke-miterlimit="10"/></g><g transform="translate(-166,-142) scale(1,1)"><g><path fill="none" stroke="none"/><text fill="#000000" stroke="none" font-family="Arial" font-size="13px" font-style="normal" font-weight="normal" text-decoration="none" x="900" y="704">requires</text></g></g><g transform="translate(-166,-142) scale(1,1)"><g><path fill="none" stroke="none"/><text fill="#000000" stroke="none" font-family="Arial" font-size="13px" font-style="normal" font-weight="normal" text-decoration="none" x="923" y="674">1</text></g></g><g transform="translate(-166,-142) scale(1,1)"><g><path fill="none" stroke="none"/><text fill="#000000" stroke="none" font-family="Arial" font-size="13px" font-style="normal" font-weight="normal" text-decoration="none" x="899" y="683">*</text></g></g><g transform="translate(-166,-142) scale(1,1)"><path fill="none" stroke="#000000" d="M 802 687 L 804 425" stroke-miterlimit="10"/></g><g transform="translate(-166,-142) scale(1,1)"><g><path fill="none" stroke="none"/><text fill="#000000" stroke="none" font-family="Arial" font-size="13px" font-style="normal" font-weight="normal" text-decoration="none" x="806" y="575">Issued By</text></g></g><g transform="translate(-166,-142) scale(1,1)"><g><path fill="none" stroke="none"/><text fill="#000000" stroke="none" font-family="Arial" font-size="13px" font-style="normal" font-weight="normal" text-decoration="none" x="811" y="672">1</text></g></g><g transform="translate(-166,-142) scale(1,1)"><g><path fill="none" stroke="none"/><text fill="#000000" stroke="none" font-family="Arial" font-size="13px" font-style="normal" font-weight="normal" text-decoration="none" x="813" y="453">1</text></g></g><g transform="translate(-166,-142) scale(1,1)"><path fill="none" stroke="#000000" d="M 700 592 L 773 687" stroke-miterlimit="10"/></g><g transform="translate(-166,-142) scale(1,1)"><g><path fill="none" stroke="none"/><text fill="#000000" stroke="none" font-family="Arial" font-size="13px" font-style="normal" font-weight="normal" text-decoration="none" x="742" y="636">of</text></g></g><g transform="translate(-166,-142) scale(1,1)"><g><path fill="none" stroke="none"/><text fill="#000000" stroke="none" font-family="Arial" font-size="13px" font-style="normal" font-weight="normal" text-decoration="none" x="700" y="623">1</text></g></g><g transform="translate(-166,-142) scale(1,1)"><g><path fill="none" stroke="none"/><text fill="#000000" stroke="none" font-family="Arial" font-size="13px" font-style="normal" font-weight="normal" text-decoration="none" x="746" y="684">1</text></g></g><g transform="translate(-166,-142) scale(1,1)"><path fill="none" stroke="#000000" d="M 494 672 L 480 654 L 376 560 L 361 551" stroke-miterlimit="10"/></g><g transform="translate(-166,-142) scale(1,1)"><g><path fill="none" stroke="none"/><text fill="#000000" stroke="none" font-family="Arial" font-size="13px" font-style="normal" font-weight="normal" text-decoration="none" x="432" y="606">ownes</text></g></g><g transform="translate(-166,-142) scale(1,1)"><g><path fill="none" stroke="none"/><text fill="#000000" stroke="none" font-family="Arial" font-size="13px" font-style="normal" font-weight="normal" text-decoration="none" x="487" y="654">1</text></g></g><g transform="translate(-166,-142) scale(1,1)"><g><path fill="none" stroke="none"/><text fill="#000000" stroke="none" font-family="Arial" font-size="13px" font-style="normal" font-weight="normal" text-decoration="none" x="383" y="558">*</text></g></g></g></svg>