<svg version="1.1" xmlns="http://www.w3.org/2000/svg" xmlns:xlink="http://www.w3.org/1999/xlink" width="1081" height="964"><defs/><g><g transform="translate(-374,-30) scale(1,1)"><path fill="none" stroke="#000000" d="M 384 96 L 1078 96 L 1078 960 L 384 960 L 384 96" stroke-miterlimit="10"/></g><g transform="translate(-374,-30) scale(1,1)"><path fill="#ffffff" stroke="none" d="M 384 96 L 384 118 L 563 118 L 574 107 L 574 96 L 384 96"/></g><g transform="translate(-374,-30) scale(1,1)"><path fill="none" stroke="#000000" d="M 384 96 L 384 118 L 563 118 L 574 107 L 574 96 L 384 96 L 384 96" stroke-miterlimit="10"/></g><g transform="translate(-374,-30) scale(1,1)"><g><path fill="none" stroke="none"/><text fill="#000000" stroke="none" font-family="Arial" font-size="13px" font-style="normal" font-weight="normal" text-decoration="none" x="455" y="113.5">CreateDeclaration</text></g></g><g transform="translate(-374,-30) scale(1,1)"><g><path fill="none" stroke="none"/><text fill="#000000" stroke="none" font-family="Arial" font-size="13px" font-style="normal" font-weight="bold" text-decoration="none" x="389" y="113.5">interaction</text></g></g><g transform="translate(-374,-30) scale(1,1)"><rect fill="#C0C0C0" stroke="none" x="895" y="47" width="72" height="39" opacity="0.2"/></g><g transform="translate(-374,-30) scale(1,1)"><rect fill="#ffffff" stroke="none" x="888" y="40" width="72" height="39"/></g><g transform="translate(-374,-30) scale(1,1)"><path fill="none" stroke="#000000" d="M 888 40 L 960 40 L 960 79 L 888 79 L 888 40 Z Z" stroke-miterlimit="10"/></g><g transform="translate(-374,-30) scale(1,1)"><g><path fill="none" stroke="none"/><text fill="#000000" stroke="none" font-family="Arial" font-size="13px" font-style="normal" font-weight="bold" text-decoration="none" x="901.5" y="59.5">System</text></g></g><g transform="translate(-374,-30) scale(1,1)"><path fill="none" stroke="#000000" d="M 925.5 80 L 925.5 984" stroke-miterlimit="10" stroke-dasharray="3"/></g><g transform="translate(-374,-30) scale(1,1)"><rect fill="#C0C0C0" stroke="none" x="607" y="47" width="72" height="39" opacity="0.2"/></g><g transform="translate(-374,-30) scale(1,1)"><rect fill="#ffffff" stroke="none" x="600" y="40" width="72" height="39"/></g><g transform="translate(-374,-30) scale(1,1)"><path fill="none" stroke="#000000" d="M 600 40 L 672 40 L 672 79 L 600 79 L 600 40 Z Z" stroke-miterlimit="10"/></g><g transform="translate(-374,-30) scale(1,1)"><g><path fill="none" stroke="none"/><text fill="#000000" stroke="none" font-family="Arial" font-size="13px" font-style="normal" font-weight="bold" text-decoration="none" x="622.5" y="59.5">User</text></g></g><g transform="translate(-374,-30) scale(1,1)"><path fill="none" stroke="#000000" d="M 637.5 80 L 637.5 984" stroke-miterlimit="10" stroke-dasharray="3"/></g><g transform="translate(-374,-30) scale(1,1)"><path fill="none" stroke="#000000" d="M 552 376 L 1024 376 L 1024 800 L 552 800 L 552 376" stroke-miterlimit="10"/></g><g transform="translate(-374,-30) scale(1,1)"><path fill="#ffffff" stroke="none" d="M 552 376 L 552 398 L 615 398 L 626 387 L 626 376 L 552 376"/></g><g transform="translate(-374,-30) scale(1,1)"><path fill="none" stroke="#000000" d="M 552 376 L 552 398 L 615 398 L 626 387 L 626 376 L 552 376 L 552 376" stroke-miterlimit="10"/></g><g transform="translate(-374,-30) scale(1,1)"><g><path fill="none" stroke="none"/><text fill="#000000" stroke="none" font-family="Arial" font-size="13px" font-style="normal" font-weight="normal" text-decoration="none" x="587" y="393.5">new</text></g></g><g transform="translate(-374,-30) scale(1,1)"><g><path fill="none" stroke="none"/><text fill="#000000" stroke="none" font-family="Arial" font-size="13px" font-style="normal" font-weight="bold" text-decoration="none" x="557" y="393.5">loop</text></g></g><g transform="translate(-374,-30) scale(1,1)"><path fill="none" stroke="#000000" d="M 600 464 L 959 464 L 959 552 L 600 552 L 600 464" stroke-miterlimit="10"/></g><g transform="translate(-374,-30) scale(1,1)"><path fill="#ffffff" stroke="none" d="M 600 464 L 600 486 L 693 486 L 704 475 L 704 464 L 600 464"/></g><g transform="translate(-374,-30) scale(1,1)"><path fill="none" stroke="#000000" d="M 600 464 L 600 486 L 693 486 L 704 475 L 704 464 L 600 464 L 600 464" stroke-miterlimit="10"/></g><g transform="translate(-374,-30) scale(1,1)"><g><path fill="none" stroke="none"/><text fill="#000000" stroke="none" font-family="Arial" font-size="13px" font-style="normal" font-weight="normal" text-decoration="none" x="635" y="481.5">add good</text></g></g><g transform="translate(-374,-30) scale(1,1)"><g><path fill="none" stroke="none"/><text fill="#000000" stroke="none" font-family="Arial" font-size="13px" font-style="normal" font-weight="bold" text-decoration="none" x="605" y="481.5">loop</text></g></g><g transform="translate(-374,-30) scale(1,1)"><g><path fill="none" stroke="none"/><text fill="#000000" stroke="none" font-family="Arial" font-size="20px" font-style="normal" font-weight="normal" text-decoration="none" x="1117" y="137">Contract:</text></g></g><g transform="translate(-374,-30) scale(1,1)"><g><path fill="none" stroke="none"/></g></g><g transform="translate(-374,-30) scale(1,1)"><g><path fill="none" stroke="none"/><text fill="#000000" stroke="none" font-family="Arial" font-size="20px" font-style="normal" font-weight="normal" text-decoration="none" x="1117" y="161">operation:createDeclaration</text></g></g><g transform="translate(-374,-30) scale(1,1)"><g><path fill="none" stroke="none"/></g></g><g transform="translate(-374,-30) scale(1,1)"><g><path fill="none" stroke="none"/><text fill="#000000" stroke="none" font-family="Arial" font-size="20px" font-style="normal" font-weight="normal" text-decoration="none" x="1117" y="185">(merchant, price, sourceCountry,</text><text fill="#000000" stroke="none" font-family="Arial" font-size="20px" font-style="normal" font-weight="normal" text-decoration="none" x="1117" y="205">transportType, ListOfGoods)</text></g></g><g transform="translate(-374,-30) scale(1,1)"><g><path fill="none" stroke="none"/><text fill="#000000" stroke="none" font-family="Arial" font-size="20px" font-style="normal" font-weight="normal" text-decoration="none" x="1117" y="227">Cross Reference: usecase ایجاد</text><text fill="#000000" stroke="none" font-family="Arial" font-size="20px" font-style="normal" font-weight="normal" text-decoration="none" x="1117" y="247">اظهارنامه</text></g></g><g transform="translate(-374,-30) scale(1,1)"><g><path fill="none" stroke="none"/></g></g><g transform="translate(-374,-30) scale(1,1)"><g><path fill="none" stroke="none"/><text fill="#000000" stroke="none" font-family="Arial" font-size="20px" font-style="normal" font-weight="normal" text-decoration="none" x="1117" y="271">Pre-conditons:</text></g></g><g transform="translate(-374,-30) scale(1,1)"><g><path fill="none" stroke="none"/><text fill="#000000" stroke="none" font-family="Arial" font-size="20px" font-style="normal" font-weight="normal" text-decoration="none" x="1117" y="293">-کارمند لاگین کرده باشد</text></g></g><g transform="translate(-374,-30) scale(1,1)"><g><path fill="none" stroke="none"/></g></g><g transform="translate(-374,-30) scale(1,1)"><g><path fill="none" stroke="none"/><text fill="#000000" stroke="none" font-family="Arial" font-size="20px" font-style="normal" font-weight="normal" text-decoration="none" x="1117" y="317">Post-conditions:</text></g></g><g transform="translate(-374,-30) scale(1,1)"><g><path fill="none" stroke="none"/><text fill="#000000" stroke="none" font-family="Arial" font-size="20px" font-style="normal" font-weight="normal" text-decoration="none" x="1117" y="339">۱-اظهارنامه به لیست اظهارنامه‌ها اضافه شده</text><text fill="#000000" stroke="none" font-family="Arial" font-size="20px" font-style="normal" font-weight="normal" text-decoration="none" x="1117" y="359">باشد.</text></g></g><g transform="translate(-374,-30) scale(1,1)"><g><path fill="none" stroke="none"/><text fill="#000000" stroke="none" font-family="Arial" font-size="20px" font-style="normal" font-weight="normal" text-decoration="none" x="1117" y="381">۲- رابطه‌ی بین اظهارنامه و کالاهای وارداتی</text><text fill="#000000" stroke="none" font-family="Arial" font-size="20px" font-style="normal" font-weight="normal" text-decoration="none" x="1117" y="401">ایجاد شده باشد.</text></g></g><g transform="translate(-374,-30) scale(1,1)"><g><path fill="none" stroke="none"/><text fill="#000000" stroke="none" font-family="Arial" font-size="20px" font-style="normal" font-weight="normal" text-decoration="none" x="1117" y="423">۳-اطلاعات اظهارنامه‌ی تولید شده کامل شده</text><text fill="#000000" stroke="none" font-family="Arial" font-size="20px" font-style="normal" font-weight="normal" text-decoration="none" x="1117" y="443">باشند (از قبیل تاریخ اظهار، کدرهگیری و ...)</text></g></g><g transform="translate(-374,-30) scale(1,1)"><g><path fill="none" stroke="none"/><text fill="#000000" stroke="none" font-family="Arial" font-size="20px" font-style="normal" font-weight="normal" text-decoration="none" x="1117" y="465">۴-اظهارنامه با تاجر درخواست دهنده ارتباط</text><text fill="#000000" stroke="none" font-family="Arial" font-size="20px" font-style="normal" font-weight="normal" text-decoration="none" x="1117" y="485">داشته باشد.</text></g></g><g transform="translate(-374,-30) scale(1,1)"><path fill="none" stroke="#000000" d="M 637 240 L 925 240" stroke-miterlimit="10"/></g><g transform="translate(-374,-30) scale(1,1)"><path fill="#000000" stroke="none" d="M 914.8373251423759 244.209517756016 L 925 240 L 914.8373251423758 235.790482243984"/></g><g transform="translate(-374,-30) scale(1,1)"><path fill="none" stroke="#000000" d="M 914.8373251423759 244.209517756016 L 925 240 L 914.8373251423758 235.790482243984 L 914.8373251423759 244.209517756016" stroke-miterlimit="10"/></g><g transform="translate(-374,-30) scale(1,1)"><g><path fill="none" stroke="none"/><text fill="#000000" stroke="none" font-family="Arial" font-size="13px" font-style="normal" font-weight="normal" text-decoration="none" x="698" y="228">signIn(username, password)</text></g></g><g transform="translate(-374,-30) scale(1,1)"><path fill="none" stroke="#000000" d="M 925 272 L 637 272" stroke-miterlimit="10" stroke-dasharray="3"/></g><g transform="translate(-374,-30) scale(1,1)"><path fill="none" stroke="#000000" d="M 647.1626748576241 267.790482243984 L 637 272 L 647.1626748576241 276.209517756016" stroke-miterlimit="10"/></g><g transform="translate(-374,-30) scale(1,1)"><g><path fill="none" stroke="none"/><text fill="#000000" stroke="none" font-family="Arial" font-size="13px" font-style="normal" font-weight="normal" text-decoration="none" x="741" y="289">HomeWindow</text></g></g><g transform="translate(-374,-30) scale(1,1)"><path fill="none" stroke="#000000" d="M 637 408 L 925 408" stroke-miterlimit="10"/></g><g transform="translate(-374,-30) scale(1,1)"><path fill="#000000" stroke="none" d="M 914.8373251423759 412.209517756016 L 925 408 L 914.8373251423758 403.790482243984"/></g><g transform="translate(-374,-30) scale(1,1)"><path fill="none" stroke="#000000" d="M 914.8373251423759 412.209517756016 L 925 408 L 914.8373251423758 403.790482243984 L 914.8373251423759 412.209517756016" stroke-miterlimit="10"/></g><g transform="translate(-374,-30) scale(1,1)"><g><path fill="none" stroke="none"/><text fill="#000000" stroke="none" font-family="Arial" font-size="13px" font-style="normal" font-weight="normal" text-decoration="none" x="693" y="404">ShowCreateDeclarationForm()</text></g></g><g transform="translate(-374,-30) scale(1,1)"><path fill="none" stroke="#000000" d="M 925 432 L 637 432" stroke-miterlimit="10" stroke-dasharray="3"/></g><g transform="translate(-374,-30) scale(1,1)"><path fill="none" stroke="#000000" d="M 647.1626748576241 427.790482243984 L 637 432 L 647.1626748576241 436.209517756016" stroke-miterlimit="10"/></g><g transform="translate(-374,-30) scale(1,1)"><g><path fill="none" stroke="none"/><text fill="#000000" stroke="none" font-family="Arial" font-size="13px" font-style="normal" font-weight="normal" text-decoration="none" x="733" y="449">DeclarationForm</text></g></g><g transform="translate(-374,-30) scale(1,1)"><path fill="none" stroke="#000000" d="M 637 496 L 925 496" stroke-miterlimit="10"/></g><g transform="translate(-374,-30) scale(1,1)"><path fill="#000000" stroke="none" d="M 914.8373251423759 500.209517756016 L 925 496 L 914.8373251423758 491.790482243984"/></g><g transform="translate(-374,-30) scale(1,1)"><path fill="none" stroke="#000000" d="M 914.8373251423759 500.209517756016 L 925 496 L 914.8373251423758 491.790482243984 L 914.8373251423759 500.209517756016" stroke-miterlimit="10"/></g><g transform="translate(-374,-30) scale(1,1)"><g><path fill="none" stroke="none"/><text fill="#000000" stroke="none" font-family="Arial" font-size="13px" font-style="normal" font-weight="normal" text-decoration="none" x="723" y="493">AddNewGoodForm()</text></g></g><g transform="translate(-374,-30) scale(1,1)"><path fill="none" stroke="#000000" d="M 925 516 L 637 516" stroke-miterlimit="10" stroke-dasharray="3"/></g><g transform="translate(-374,-30) scale(1,1)"><path fill="none" stroke="#000000" d="M 647.1626748576241 511.790482243984 L 637 516 L 647.1626748576241 520.209517756016" stroke-miterlimit="10"/></g><g transform="translate(-374,-30) scale(1,1)"><g><path fill="none" stroke="none"/><text fill="#000000" stroke="none" font-family="Arial" font-size="13px" font-style="normal" font-weight="normal" text-decoration="none" x="750" y="533">GoodForm</text></g></g><g transform="translate(-374,-30) scale(1,1)"><path fill="none" stroke="#000000" d="M 637 587 L 925 587" stroke-miterlimit="10"/></g><g transform="translate(-374,-30) scale(1,1)"><path fill="#000000" stroke="none" d="M 914.8373251423759 591.209517756016 L 925 587 L 914.8373251423758 582.790482243984"/></g><g transform="translate(-374,-30) scale(1,1)"><path fill="none" stroke="#000000" d="M 914.8373251423759 591.209517756016 L 925 587 L 914.8373251423758 582.790482243984 L 914.8373251423759 591.209517756016" stroke-miterlimit="10"/></g><g transform="translate(-374,-30) scale(1,1)"><g><path fill="none" stroke="none"/><text fill="#000000" stroke="none" font-family="Arial" font-size="13px" font-style="normal" font-weight="normal" text-decoration="none" x="691" y="584">SubmitForm(DecalarationForm)</text></g></g><g transform="translate(-374,-30) scale(1,1)"><path fill="none" stroke="#000000" d="M 925 608 L 955 608 L 955 628 L 925 628" stroke-miterlimit="10"/></g><g transform="translate(-374,-30) scale(1,1)"><path fill="#000000" stroke="none" d="M 935.1626748576241 623.790482243984 L 925 628 L 935.1626748576241 632.209517756016"/></g><g transform="translate(-374,-30) scale(1,1)"><path fill="none" stroke="#000000" d="M 935.1626748576241 623.790482243984 L 925 628 L 935.1626748576241 632.209517756016 L 935.1626748576241 623.790482243984" stroke-miterlimit="10"/></g><g transform="translate(-374,-30) scale(1,1)"><g><path fill="none" stroke="none"/><text fill="#000000" stroke="none" font-family="Arial" font-size="13px" font-style="normal" font-weight="normal" text-decoration="none" x="832" y="623">findMerchant()</text></g></g><g transform="translate(-374,-30) scale(1,1)"><path fill="none" stroke="#000000" d="M 925 664 L 955 664 L 955 684 L 925 684" stroke-miterlimit="10"/></g><g transform="translate(-374,-30) scale(1,1)"><path fill="#000000" stroke="none" d="M 935.1626748576241 679.790482243984 L 925 684 L 935.1626748576241 688.209517756016"/></g><g transform="translate(-374,-30) scale(1,1)"><path fill="none" stroke="#000000" d="M 935.1626748576241 679.790482243984 L 925 684 L 935.1626748576241 688.209517756016 L 935.1626748576241 679.790482243984" stroke-miterlimit="10"/></g><g transform="translate(-374,-30) scale(1,1)"><g><path fill="none" stroke="none"/><text fill="#000000" stroke="none" font-family="Arial" font-size="13px" font-style="normal" font-weight="normal" text-decoration="none" x="872" y="679">setDate</text></g></g><g transform="translate(-374,-30) scale(1,1)"><path fill="none" stroke="#000000" d="M 925 704 L 955 704 L 955 724 L 925 724" stroke-miterlimit="10"/></g><g transform="translate(-374,-30) scale(1,1)"><path fill="#000000" stroke="none" d="M 935.1626748576241 719.790482243984 L 925 724 L 935.1626748576241 728.209517756016"/></g><g transform="translate(-374,-30) scale(1,1)"><path fill="none" stroke="#000000" d="M 935.1626748576241 719.790482243984 L 925 724 L 935.1626748576241 728.209517756016 L 935.1626748576241 719.790482243984" stroke-miterlimit="10"/></g><g transform="translate(-374,-30) scale(1,1)"><g><path fill="none" stroke="none"/><text fill="#000000" stroke="none" font-family="Arial" font-size="13px" font-style="normal" font-weight="normal" text-decoration="none" x="856" y="719">generateID</text></g></g><g transform="translate(-374,-30) scale(1,1)"><path fill="none" stroke="#000000" d="M 925 768 L 637 768" stroke-miterlimit="10" stroke-dasharray="3"/></g><g transform="translate(-374,-30) scale(1,1)"><path fill="none" stroke="#000000" d="M 647.1626748576241 763.790482243984 L 637 768 L 647.1626748576241 772.209517756016" stroke-miterlimit="10"/></g><g transform="translate(-374,-30) scale(1,1)"><g><path fill="none" stroke="none"/><text fill="#000000" stroke="none" font-family="Arial" font-size="13px" font-style="normal" font-weight="normal" text-decoration="none" x="767" y="785">ID</text></g></g><g transform="translate(-374,-30) scale(1,1)"><path fill="none" stroke="#000000" d="M 637 868 L 925 868" stroke-miterlimit="10"/></g><g transform="translate(-374,-30) scale(1,1)"><path fill="#000000" stroke="none" d="M 914.8373251423759 872.209517756016 L 925 868 L 914.8373251423758 863.790482243984"/></g><g transform="translate(-374,-30) scale(1,1)"><path fill="none" stroke="#000000" d="M 914.8373251423759 872.209517756016 L 925 868 L 914.8373251423758 863.790482243984 L 914.8373251423759 872.209517756016" stroke-miterlimit="10"/></g><g transform="translate(-374,-30) scale(1,1)"><g><path fill="none" stroke="none"/><text fill="#000000" stroke="none" font-family="Arial" font-size="13px" font-style="normal" font-weight="normal" text-decoration="none" x="755" y="865">signOut()</text></g></g><g transform="translate(-374,-30) scale(1,1)"><path fill="none" stroke="#000000" d="M 925 888 L 637 888" stroke-miterlimit="10" stroke-dasharray="3"/></g><g transform="translate(-374,-30) scale(1,1)"><path fill="none" stroke="#000000" d="M 647.1626748576241 883.790482243984 L 637 888 L 647.1626748576241 892.209517756016" stroke-miterlimit="10"/></g><g transform="translate(-374,-30) scale(1,1)"><g><path fill="none" stroke="none"/><text fill="#000000" stroke="none" font-family="Arial" font-size="13px" font-style="normal" font-weight="normal" text-decoration="none" x="744" y="905">loginWindow</text></g></g></g></svg>